<svg width="16" height="16" viewBox="0 0 16 16" fill="none" xmlns="http://www.w3.org/2000/svg">
<path d="M12.9553 9.55719C13.5064 9.24601 13.9885 8.82938 14.375 8.33304C14.3715 8.40101 14.3669 8.46884 14.3612 8.53649C13.9842 8.98722 13.5279 9.368 13.0126 9.65882C12.4237 9.99122 11.7739 10.197 11.1047 10.2654V10.1484C11.7538 10.0804 12.3839 9.87985 12.9553 9.55719ZM13.2211 13.2211C14.3849 12.0573 15.1201 10.545 15.325 8.92942C15.3728 8.86566 15.4192 8.80088 15.4644 8.73511C15.111 12.3684 12.165 15.2424 8.5 15.4836V15.3668C10.2757 15.2463 11.9547 14.4875 13.2211 13.2211ZM7.5 15.3668V15.4836C3.75629 15.2372 0.762824 12.2437 0.516403 8.5H0.633213C0.75366 10.2757 1.51253 11.9547 2.77892 13.2211C4.04531 14.4875 5.72435 15.2463 7.5 15.3668ZM0.633213 7.5H0.516403C0.75767 3.83459 3.63227 0.888372 7.2661 0.535452C7.2003 0.580634 7.13549 0.627108 7.0717 0.674838C5.45574 0.87959 3.943 1.61484 2.77892 2.77892C1.51253 4.04531 0.75366 5.72435 0.633213 7.5ZM5.73466 4.89535C5.80304 4.22627 6.00887 3.5766 6.34125 2.9878C6.63225 2.4723 7.01332 2.01575 7.46441 1.63877C7.53178 1.6331 7.59933 1.62849 7.66704 1.62496C7.1707 2.01157 6.75409 2.49364 6.44291 3.04472C6.12026 3.61612 5.91968 4.24625 5.85162 4.89535H5.73466ZM5.85179 5.89535C5.96577 6.97906 6.44773 7.99705 7.22534 8.77466C8.00295 9.55227 9.02094 10.0342 10.1047 10.1482V10.2651C8.99002 10.1507 7.94256 9.65632 7.14312 8.85688C6.34368 8.05745 5.8493 7.00998 5.73489 5.89535H5.85179Z" fill="#1F1F1F" stroke="#1F1F1F"/>
</svg>
